Coordinates
version=1
nRows=25
nColumns=28
inDegrees=yes

Units are S.I. units (second, meters, Newtons, ...)
Angles are in degrees.

endheader
time	pelvis_tilt	pelvis_list	pelvis_rotation	pelvis_tx	pelvis_ty	pelvis_tz	hip_flexion_r	hip_adduction_r	hip_rotation_r	knee_angle_r	ankle_angle_r	subtalar_angle_r	mtp_angle_r	hip_flexion_l	hip_adduction_l	hip_rotation_l	knee_angle_l	socket_flexion	socket_adduction	socket_rotation	socket_tx	socket_ty	socket_tz	foot_flex	lumbar_extension	lumbar_bending	lumbar_rotation
      0.00000000	      0.98718819	    -11.10442870	    -12.59690077	     -0.87577831	      0.98258166	      0.32288017	    -24.57435330	     10.69504636	     14.37813525	    -10.89867666	      3.40809199	    -14.25627861	     23.09951592	     27.53890440	    -15.16626874	      6.10162269	    -10.97429475	     -3.40739742	      0.00000000	      0.00000000	      0.00000000	     -0.00007905	      0.00000000	      2.38168748	    -14.04778416	      7.62899654	     18.93812172
      0.00416667	      0.90110269	    -11.14754912	    -12.52015610	     -0.87027559	      0.98184446	      0.32241947	    -24.66629277	     10.73239433	     14.43687300	    -11.11238317	      3.34877856	    -14.23851114	     23.11349414	     27.35479855	    -15.10843981	      6.11199314	    -10.96591402	     -3.45481489	      0.00000000	      0.00000000	      0.00000000	     -0.00049672	      0.00000000	      2.27034143	    -13.87502214	      7.68170665	     18.94748427
      0.00833333	      0.77313498	    -11.28103848	    -12.60081890	     -0.86472102	      0.98108002	      0.32206044	    -24.58385359	     10.81732222	     14.36993781	    -11.63365049	      3.04177622	    -14.22870314	     23.15383767	     27.09067441	    -15.22407256	      6.07142373	    -10.76830561	     -3.44769966	      0.00000000	      0.00000000	      0.00000000	     -0.00126986	      0.00000000	      1.72093176	    -13.74731015	      7.84116045	     18.97263718
      0.01250000	      0.61879211	    -11.32648519	    -12.91193768	     -0.85857792	      0.98041178	      0.32212086	    -24.46170912	     10.71723991	     14.34341695	    -12.19502306	      2.52602772	    -14.21509141	     24.53422522	     26.41542800	    -15.39542319	      5.68328738	     -9.65167104	     -2.83199455	      0.00000000	      0.00000000	      0.00000000	     -0.00235608	      0.00000000	      1.51469685	    -13.49758886	      7.85552463	     19.37795394
      0.01666667	      0.52235059	    -11.38926116	    -12.91015975	     -0.85261195	      0.97967503	      0.32168504	    -24.44757683	     10.75125477	     14.33143668	    -12.63978765	      2.27898576	    -14.23099142	     24.54247039	     26.17847000	    -15.39058376	      5.67794964	     -9.60659642	     -2.88880221	      0.00000000	      0.00000000	      0.00000000	     -0.00297518	      0.00000000	      1.13637539	    -13.36218535	      7.92374876	     19.34000826
      0.02083333	      0.39938552	    -11.47958805	    -12.96359893	     -0.84647271	      0.97889820	      0.32126632	    -24.36704526	     10.79560191	     14.24057561	    -13.18322033	      1.91425927	    -14.27335188	     24.57119636	     25.91752370	    -15.43585405	      5.59714568	     -9.48755453	     -2.87875524	      0.00000000	      0.00000000	      0.00000000	     -0.00373966	      0.00000000	      0.81603695	    -13.19201114	      8.04566929	     19.31778970
      0.02500000	      0.09754188	    -11.46709386	    -13.13676516	     -0.83990322	      0.97801926	      0.32114977	    -24.10884217	     10.74662868	     14.25000568	    -13.70072015	      1.40437459	    -14.43974689	     25.11265682	     25.61340448	    -15.48321552	      5.41974111	     -8.85438852	     -2.53234714	      0.00000000	      0.00000000	      0.00000000	     -0.00463179	      0.00000000	      0.55719424	    -12.74150666	      8.06397428	     19.46493415
      0.02916667	      0.02593997	    -11.50471558	    -13.05418343	     -0.83337517	      0.97730993	      0.32061322	    -24.20028516	     10.76876626	     14.30869603	    -14.00068558	      1.30539029	    -14.43750738	     25.11786290	     25.37835606	    -15.40492336	      5.43146537	     -8.89608820	     -2.58120909	      0.00000000	      0.00000000	      0.00000000	     -0.00531753	      0.00000000	      0.44265691	    -12.54597504	      8.11205290	     19.45328749
      0.03333333	     -0.04972544	    -11.57298129	    -13.16895031	     -0.82717831	      0.97671263	      0.32025963	    -24.02173452	     10.76758733	     14.17379010	    -14.80657372	      0.73996680	    -14.49159969	     25.12036791	     25.05705667	    -15.45300620	      5.34658915	     -8.81943961	     -2.61402886	      0.00000000	      0.00000000	      0.00000000	     -0.00622674	      0.00000000	     -0.14096346	    -12.47966285	      8.17795435	     19.38170329
      0.03750000	     -0.12376976	    -11.60009812	    -13.09024869	     -0.82041666	      0.97605294	      0.31974478	    -24.08831358	     10.77835803	     14.22547057	    -15.14427392	      0.59415233	    -14.49150188	     25.12773766	     24.80700125	    -15.36850176	      5.35297297	     -8.85167695	     -2.64410420	      0.00000000	      0.00000000	      0.00000000	     -0.00708181	      0.00000000	     -0.22687060	    -12.25563599	      8.21932494	     19.37046885
      0.04166667	     -0.28998372	    -11.43639405	    -13.38202027	     -0.81374947	      0.97555577	      0.31974069	    -23.71190518	     10.47283539	     13.85892020	    -15.96617901	     -0.89989939	    -14.93656496	     27.83289169	     24.25939425	    -15.29578665	      4.95899032	     -8.04895834	     -2.17055530	      0.00000000	      0.00000000	      0.00000000	     -0.00801678	      0.00000000	     -0.64533794	    -11.97387171	      8.01279557	     19.44290417
      0.04583333	     -0.35148662	    -11.43369871	    -13.37983508	     -0.80725700	      0.97510815	      0.31927479	    -23.59714263	     10.44776179	     13.83725583	    -16.61018126	     -1.28752454	    -14.94496345	     27.79728859	     23.99808666	    -15.21363794	      4.96108155	     -8.08581242	     -2.18192111	      0.00000000	      0.00000000	      0.00000000	     -0.00881930	      0.00000000	     -0.94058372	    -11.83404544	      8.00297579	     19.38495668
      0.05000000	     -0.48189319	    -11.33619428	    -13.43736154	     -0.80055453	      0.97459612	      0.31891630	    -23.34667585	     10.30744887	     13.63829011	    -17.32256299	     -1.92958869	    -14.98433951	     27.81835071	     23.76708424	    -15.07444618	      4.84804777	     -8.05887130	     -2.13634752	      0.00000000	      0.00000000	      0.00000000	     -0.00964878	      0.00000000	     -1.14146887	    -11.56479702	      7.90406229	     19.31332425
      0.05416667	     -0.52280937	    -11.33455481	    -13.31462837	     -0.79366872	      0.97418605	      0.31831469	    -23.40044173	     10.31259458	     13.75004290	    -17.69598716	     -2.06480687	    -14.96969178	     27.82024578	     23.52311746	    -14.93712072	      4.89227580	     -8.14451700	     -2.12687365	      0.00000000	      0.00000000	      0.00000000	     -0.01054346	      0.00000000	     -1.23558835	    -11.34006696	      7.91701303	     19.29553286
      0.05833333	     -0.55677556	    -11.21225564	    -13.39362950	     -0.78764045	      0.97403615	      0.31800439	    -23.03194748	     10.17179250	     13.65540640	    -18.74752444	     -2.84376137	    -14.98745049	     27.77861055	     23.25262395	    -14.78364705	      4.92032277	     -8.18222518	     -2.09803193	      0.00000000	      0.00000000	      0.00000000	     -0.01114178	      0.00000000	     -1.68865187	    -11.31387759	      7.70104782	     19.15275273
      0.06250000	     -0.75219113	    -10.83349465	    -13.41000895	     -0.78055390	      0.97362175	      0.31767884	    -22.54246293	      9.77254767	     13.08444860	    -19.57747131	     -3.86335714	    -15.07287609	     28.06034719	     23.11676339	    -14.34674767	      4.60214240	     -8.13876077	     -1.98642841	      0.00000000	      0.00000000	      0.00000000	     -0.01172531	      0.00000000	     -1.79771202	    -10.82673121	      7.32327681	     18.98935016
      0.06666667	     -0.81590848	    -10.64348445	    -13.38498990	     -0.77396363	      0.97340935	      0.31723631	    -22.20870857	      9.57160474	     12.82907683	    -20.45250069	     -4.55321690	    -15.06544469	     28.40538861	     22.90719656	    -14.07494678	      4.55354902	     -8.21827344	     -1.93410112	      0.00000000	      0.00000000	      0.00000000	     -0.01240459	      0.00000000	     -1.99377030	    -10.61268915	      7.10057284	     18.81890449
      0.07083333	     -0.95874638	    -10.30317942	    -13.24258104	     -0.76725822	      0.97301287	      0.31650757	    -21.66351540	      9.21831333	     12.10595583	    -21.37011031	     -5.62663405	    -14.76853813	     31.57760557	     22.92649176	    -13.59687664	      4.58054187	     -8.52212530	     -1.99351502	      0.00000000	      0.00000000	      0.00000000	     -0.01293859	      0.00000000	     -2.16990745	    -10.24272502	      6.76501828	     18.49744047
      0.07500000	     -0.92946447	    -10.10458200	    -13.21017553	     -0.76081727	      0.97308898	      0.31605141	    -21.36018209	      9.00225224	     11.91339818	    -22.31616778	     -6.38910198	    -14.83609553	     31.50962529	     22.64861277	    -13.30075376	      4.49575924	     -8.65364008	     -1.94603592	      0.00000000	      0.00000000	      0.00000000	     -0.01353697	      0.00000000	     -2.31714366	    -10.13968421	      6.50677622	     18.34890214
      0.07916667	     -0.89941525	     -9.91000852	    -13.10601197	     -0.75448543	      0.97325491	      0.31551700	    -21.07153420	      8.85331515	     11.90282858	    -23.23139254	     -7.01421307	    -14.83848722	     31.47336012	     22.40138285	    -12.98724209	      4.55410579	     -8.78574586	     -1.87283460	      0.00000000	      0.00000000	      0.00000000	     -0.01399914	      0.00000000	     -2.45852840	    -10.07696818	      6.23194140	     18.21567335
      0.08333333	     -0.92954774	     -9.37431562	    -12.97138513	     -0.74764123	      0.97331510	      0.31501134	    -20.54698322	      8.30753122	     11.20732693	    -24.25542607	     -8.09289074	    -14.86975314	     31.62368602	     22.24870832	    -12.31512134	      4.31471564	     -8.95032605	     -1.82035330	      0.00000000	      0.00000000	      0.00000000	     -0.01419964	      0.00000000	     -2.54824314	     -9.74321448	      5.62158402	     17.89743848
      0.08750000	     -0.89262977	     -9.09780600	    -12.88082344	     -0.74128362	      0.97352587	      0.31439124	    -20.08229193	      8.01905578	     10.82980691	    -25.39967473	     -8.96717110	    -14.83061167	     31.74219124	     22.01509725	    -11.91402268	      4.22366684	     -9.12562258	     -1.76334060	      0.00000000	      0.00000000	      0.00000000	     -0.01462417	      0.00000000	     -2.64426310	     -9.65697063	      5.29812891	     17.65021424
      0.09166667	     -0.83778354	     -8.89040100	    -12.71586880	     -0.73506491	      0.97386378	      0.31382521	    -19.74395464	      7.90170377	     10.85705554	    -26.39567396	     -9.57470964	    -14.78047236	     31.76998331	     21.77424541	    -11.57141820	      4.34840234	     -9.27710168	     -1.67713686	      0.00000000	      0.00000000	      0.00000000	     -0.01500199	      0.00000000	     -2.72144840	     -9.62601124	      4.98184455	     17.49851737
      0.09583333	     -0.89736267	     -8.14598540	    -12.46446480	     -0.72818386	      0.97392531	      0.31319636	    -18.97741753	      7.14524162	      9.75353419	    -27.65089974	    -10.80741707	    -14.64012977	     32.38257641	     21.74405247	    -10.64791846	      4.11670485	     -9.53268014	     -1.65842493	      0.00000000	      0.00000000	      0.00000000	     -0.01489562	      0.00000000	     -2.78179980	     -9.20312687	      4.16196699	     16.97976627
      0.10000000	     -0.81016728	     -7.99957507	    -12.33346709	     -0.72218004	      0.97432972	      0.31250960	    -18.54222001	      7.04441106	      9.68044056	    -28.84787877	    -11.52894401	    -14.57929225	     32.43221553	     21.47091202	    -10.36981430	      4.16982280	     -9.69925326	     -1.56548777	      0.00000000	      0.00000000	      0.00000000	     -0.01536233	      0.00000000	     -2.82301594	     -9.26838133	      3.94935578	     16.80805719
